<?xml version="1.0" standalone="no"?>
<!DOCTYPE svg PUBLIC "-//W3C//DTD SVG 20010904//EN"
 "http://www.w3.org/TR/2001/REC-SVG-20010904/DTD/svg10.dtd">
<svg version="1.0" xmlns="http://www.w3.org/2000/svg"
 width="306.000000pt" height="306.000000pt" viewBox="0 0 306.000000 306.000000"
 preserveAspectRatio="xMidYMid meet">
<metadata>
Created by potrace 1.14, written by Peter Selinger 2001-2017
</metadata>
<g transform="translate(0.000000,306.000000) scale(0.100000,-0.100000)"
fill="#000000" stroke="none">
<path d="M328 2048 c-3 -8 8 -17 26 -23 l31 -10 3 -194 c3 -203 0 -217 -41
-223 -12 -2 -22 -7 -22 -13 0 -13 185 -19 198 -6 7 7 2 14 -16 20 l-26 10 1
148 c0 102 -3 148 -11 151 -6 2 -11 23 -11 47 0 48 19 75 52 75 11 0 18 5 16
13 -6 18 -194 23 -200 5z"/>
<path d="M1547 1953 c-4 -3 -7 -86 -7 -184 0 -152 2 -178 16 -183 9 -3 17 -6
20 -6 2 0 5 59 6 130 l3 130 25 -24 c14 -13 74 -73 133 -135 105 -107 146
-133 148 -93 5 153 -2 312 -16 338 -18 34 -17 38 -17 -121 0 -60 -2 -113 -4
-116 -2 -4 -65 56 -141 132 -129 131 -150 148 -166 132z"/>
<path d="M673 1941 c10 -4 17 -11 15 -16 -2 -5 24 -9 57 -10 l60 0 1 -157 c1
-129 3 -159 17 -172 16 -16 66 -22 68 -8 0 4 2 79 5 166 3 88 7 162 9 165 3 2
30 5 60 6 31 1 58 5 62 9 3 3 1 6 -6 6 -7 0 -9 5 -6 10 4 7 -57 10 -177 9
-101 0 -175 -4 -165 -8z"/>
<path d="M1220 1770 c0 -153 2 -180 15 -180 8 0 15 -4 15 -9 0 -13 48 -19 59
-8 7 7 11 71 11 165 0 181 -10 212 -67 212 l-33 0 0 -180z"/>
<path d="M2117 1943 c-4 -3 -7 -82 -7 -174 l0 -167 29 -19 c25 -15 48 -18 153
-16 160 2 156 1 140 12 -8 4 -13 12 -13 17 1 4 -46 8 -104 9 -70 0 -108 4
-113 12 -4 6 -5 38 -2 70 l5 58 85 3 c47 2 89 8 95 14 7 8 6 9 -2 4 -8 -4 -13
-1 -13 8 0 13 -15 16 -85 16 l-85 0 0 60 c0 50 3 60 18 62 9 0 60 2 112 4 52
1 99 3 103 3 5 1 2 8 -7 16 -12 12 -44 15 -159 15 -79 0 -147 -3 -150 -7z"/>
<path d="M2658 1892 c7 -5 44 -8 83 -7 38 1 72 -2 75 -6 5 -9 -15 -108 -28
-132 -9 -17 -11 -17 -40 1 -29 19 -33 19 -64 3 -35 -17 -44 -31 -19 -31 12 0
14 -41 15 -275 l0 -274 -273 -3 -273 -3 0 35 1 35 -62 0 c-38 1 -64 -3 -65 -9
-7 -48 -2 -213 6 -221 14 -13 98 -13 112 0 6 6 10 27 9 48 l-2 37 273 0 274 0
0 -40 c0 -33 -4 -40 -19 -40 -14 0 -19 -8 -19 -27 -1 -16 -3 -53 -5 -85 -4
-49 -1 -58 18 -68 11 -6 25 -10 31 -9 5 1 17 -1 27 -6 28 -12 218 2 232 17 8
9 11 36 7 81 -4 62 -6 67 -28 67 -13 0 -27 8 -32 17 -9 16 -11 16 -27 0 -9 -9
-23 -17 -31 -17 -9 0 -14 -11 -14 -30 0 -21 -5 -30 -16 -30 -8 0 -13 4 -9 9 3
5 1 12 -5 16 -5 3 -8 19 -5 34 4 22 1 30 -13 33 -14 4 -18 14 -17 39 1 30 5
34 33 37 40 4 42 22 3 22 -16 0 -31 6 -34 14 -7 18 1 26 29 26 13 0 26 5 29
10 4 6 -7 10 -24 10 -17 0 -31 3 -32 8 0 4 -1 127 -2 275 l-2 267 41 0 c25 0
47 -6 54 -15 7 -8 21 -15 32 -15 10 0 21 7 24 15 4 8 12 15 19 15 17 0 26 66
13 95 -11 25 -37 39 -73 40 -13 0 -21 8 -23 23 -3 21 -7 22 -100 22 -54 0 -91
-4 -84 -8z"/>
<path d="M2625 1860 c3 -6 18 -8 32 -6 40 8 40 16 -1 16 -22 0 -35 -4 -31 -10z"/>
<path d="M2604 1818 c-3 -4 15 -8 40 -8 25 0 46 4 46 8 0 11 -80 10 -86 0z"/>
<path d="M2593 1774 c10 -11 73 -13 88 -3 9 6 -5 9 -40 9 -30 0 -51 -3 -48 -6z"/>
<path d="M159 1408 c-1 -2 -3 -24 -4 -50 -1 -35 2 -48 12 -48 8 0 12 4 9 9 -4
5 -7 28 -8 50 -1 35 -4 48 -9 39z"/>
<path d="M256 1402 c-6 -10 1 -92 8 -100 3 -3 6 20 6 51 0 55 -3 66 -14 49z"/>
<path d="M530 1362 c0 -29 4 -52 8 -52 10 0 10 86 0 96 -5 4 -8 -16 -8 -44z"/>
<path d="M590 1361 c0 -29 4 -50 8 -47 10 6 9 83 -1 93 -4 3 -7 -17 -7 -46z"/>
<path d="M741 1381 c6 -17 8 -38 5 -46 -3 -8 -1 -15 4 -15 16 0 11 66 -5 80
-13 11 -13 8 -4 -19z"/>
<path d="M811 1350 c1 -30 4 -42 6 -27 3 19 13 31 29 38 35 13 28 44 -9 44
-26 1 -27 0 -26 -55z"/>
<path d="M920 1358 c0 -27 5 -48 10 -48 6 0 10 6 9 13 -3 28 2 37 22 37 15 0
20 5 17 23 -2 16 -10 22 -30 22 -27 1 -28 -1 -28 -47z"/>
<path d="M1030 1361 c0 -28 4 -51 9 -51 5 0 9 20 9 45 0 25 -4 47 -9 51 -5 3
-9 -17 -9 -45z"/>
<path d="M1090 1404 c0 -5 21 -30 46 -54 26 -25 42 -36 36 -25 -13 26 -82 92
-82 79z"/>
<path d="M1237 1390 c-8 -11 -12 -32 -9 -45 6 -36 19 -31 14 5 -2 17 1 37 8
45 7 8 10 15 7 15 -3 0 -12 -9 -20 -20z"/>
<path d="M1434 1360 c0 -27 3 -50 8 -50 4 0 8 23 8 50 0 28 -4 50 -8 50 -5 0
-9 -22 -8 -50z"/>
<path d="M1740 1395 c-4 -39 2 -70 17 -85 14 -13 15 -13 7 0 -5 8 -11 35 -15
60 -3 25 -7 36 -9 25z"/>
<path d="M1860 1408 c0 -4 20 -30 45 -58 25 -28 45 -45 45 -38 -1 13 -90 108
-90 96z"/>
<path d="M2082 1398 c-19 -19 -14 -63 10 -84 21 -18 22 -18 8 -1 -19 25 -22
54 -10 78 12 22 9 24 -8 7z"/>
<path d="M2200 1362 c0 -29 4 -52 9 -52 10 0 8 87 -2 97 -4 3 -7 -17 -7 -45z"/>
<path d="M2300 1362 c0 -29 3 -52 8 -52 9 0 8 88 -2 97 -3 3 -6 -17 -6 -45z"/>
<path d="M2382 1398 c-23 -29 -18 -69 11 -87 21 -13 22 -13 5 6 -21 23 -23 64
-6 81 7 7 9 12 6 12 -3 0 -10 -6 -16 -12z"/>
<path d="M2500 1410 c-7 -15 -6 -77 1 -90 6 -11 8 -9 9 9 l0 25 30 -29 c38
-37 39 -26 1 17 -16 18 -31 42 -34 53 -2 11 -6 18 -7 15z"/>
<path d="M657 1393 c-12 -12 -7 -49 9 -69 8 -10 12 -13 8 -5 -4 8 -7 29 -6 48
1 34 0 38 -11 26z"/>
<path d="M1570 1355 c24 -24 46 -42 49 -40 6 7 -70 85 -83 85 -6 0 10 -20 34
-45z"/>
<path d="M426 1375 c3 -8 15 -17 26 -21 14 -4 18 -12 15 -26 -4 -15 -3 -17 8
-8 17 14 9 37 -16 45 -10 4 -19 11 -19 16 0 5 -4 9 -10 9 -5 0 -7 -7 -4 -15z"/>
<path d="M1302 1335 c0 -16 2 -22 5 -12 2 9 2 23 0 30 -3 6 -5 -1 -5 -18z"/>
</g>
</svg>
